<?xml version="1.0" encoding="UTF-8" standalone="no"?>
<!DOCTYPE svg PUBLIC "-//W3C//DTD SVG 1.1//EN" "http://www.w3.org/Graphics/SVG/1.1/DTD/svg11.dtd">
<svg xmlns="http://www.w3.org/2000/svg" version="1.1" viewBox="0.00 0.00 849.00 180.00">
<g stroke-width="2.00" fill="none" stroke-linecap="butt">
<path stroke="#1d2b35" vector-effect="non-scaling-stroke" d="
  M 106.60 58.28
  L 107.01 58.49
  A 0.95 0.94 10.4 0 1 107.51 59.21
  Q 107.94 62.71 107.92 67.63
  Q 107.81 85.71 107.75 135.31
  A 1.32 1.31 88.6 0 0 109.13 136.63
  Q 115.79 136.31 122.50 136.76
  Q 124.83 136.91 124.85 134.58
  Q 125.04 115.16 124.70 94.03
  Q 124.44 77.38 124.71 60.35
  Q 124.96 43.83 124.50 26.59
  A 0.84 0.84 0.0 0 0 123.66 25.77
  L 105.88 25.77
  A 2.04 2.02 -75.5 0 0 104.10 26.83
  L 68.67 91.35
  A 1.82 1.81 -67.5 0 1 66.59 92.22
  Q 66.33 92.15 65.81 92.32
  A 1.22 1.21 -33.6 0 1 64.63 92.09
  Q 64.13 91.66 64.12 90.91
  A 1.01 0.98 31.1 0 0 63.99 90.42
  L 28.36 27.35
  A 3.01 3.00 -14.6 0 0 25.74 25.82
  L 8.54 25.82
  A 0.86 0.85 -0.0 0 0 7.68 26.67
  L 7.68 135.18
  A 0.94 0.94 0.0 0 0 8.62 136.12
  L 24.23 136.12
  A 0.97 0.97 0.0 0 0 25.19 134.99
  L 24.68 132.02
  A 3.35 3.09 46.2 0 1 24.66 131.01
  C 25.10 127.49 24.56 123.71 24.59 120.66
  Q 24.84 96.02 24.40 76.75
  Q 24.25 69.97 24.12 59.22
  A 0.62 0.62 0.0 0 1 24.85 58.61
  Q 25.91 58.79 26.99 58.37
  A 0.69 0.69 0.0 0 1 27.82 58.63
  Q 35.79 70.91 39.37 77.62
  Q 42.97 84.36 45.12 87.83
  C 50.18 96.03 55.36 105.87 59.93 113.33
  Q 62.96 118.28 65.24 123.49
  A 0.78 0.77 -41.7 0 0 66.62 123.57
  L 104.12 58.61
  A 1.04 1.03 11.6 0 1 104.90 58.10
  L 105.57 58.02"
/>
<path stroke="#1d2b35" vector-effect="non-scaling-stroke" d="
  M 838.49 121.49
  Q 838.33 121.55 838.44 121.84
  A 0.40 0.40 0.0 0 1 837.81 122.28
  L 832.30 117.81
  A 1.57 1.55 43.9 0 0 830.30 117.84
  C 824.51 122.83 814.67 127.36 806.96 125.52
  Q 805.32 125.13 803.08 125.03
  A 2.89 2.89 0.0 0 1 801.89 124.71
  L 794.33 120.74
  A 5.76 5.65 -8.7 0 1 793.11 119.86
  C 789.26 116.21 784.29 108.01 786.43 102.43
  A 1.38 1.37 10.6 0 1 787.71 101.56
  L 843.08 101.56
  A 1.95 1.95 0.0 0 0 845.03 99.67
  Q 845.25 92.30 843.73 84.93
  C 841.16 72.49 834.05 63.42 822.35 58.76
  Q 817.70 56.91 811.03 56.71
  Q 802.68 56.47 799.50 57.26
  Q 790.70 59.45 784.08 64.65
  C 774.81 71.94 769.45 84.02 768.83 95.49
  C 767.98 111.00 774.84 126.15 788.81 133.44
  Q 795.04 136.69 804.66 137.95
  C 807.20 138.28 809.32 137.86 811.75 138.10
  Q 814.03 138.34 816.99 137.75
  Q 825.18 136.13 832.34 131.83
  Q 837.85 128.52 840.73 123.41"
/>
<path stroke="#1d2b35" vector-effect="non-scaling-stroke" d="
  M 219.39 87.96
  L 219.50 106.64"
/>
<path stroke="#1b2e3b" vector-effect="non-scaling-stroke" d="
  M 201.52 129.67
  Q 202.89 128.88 202.91 132.03
  Q 202.92 133.68 202.82 135.05
  A 1.18 1.18 0.0 0 0 204.00 136.31
  L 217.35 136.31
  A 0.70 0.69 0.0 0 0 218.05 135.62
  C 218.00 117.69 218.09 102.92 217.96 87.36
  Q 217.91 81.52 217.09 78.14
  C 215.58 71.88 212.13 65.76 207.27 62.74
  Q 197.68 56.79 184.99 57.00
  Q 174.87 57.17 170.00 58.36
  C 164.66 59.66 156.80 62.62 152.49 67.00
  A 0.99 0.98 -32.9 0 0 152.26 68.04
  L 153.62 71.69
  A 2.66 2.62 30.5 0 1 153.74 72.14
  L 155.19 79.44
  A 1.24 1.24 0.0 0 0 157.16 80.18
  Q 165.50 73.78 174.45 71.16
  A 4.94 4.53 -52.2 0 1 175.50 70.98
  C 183.53 70.51 188.83 70.57 195.78 73.95
  A 3.47 3.43 79.0 0 1 196.60 74.51
  Q 201.84 79.41 201.96 86.93
  A 0.56 0.54 -75.7 0 1 201.15 87.43
  Q 200.97 87.32 200.88 87.14"
/>
<path stroke="#1b2e3b" vector-effect="non-scaling-stroke" d="
  M 200.08 128.52
  L 199.74 127.97
  A 0.66 0.66 0.0 0 0 198.70 127.86
  Q 191.91 134.85 183.30 137.11
  C 178.94 138.26 175.63 137.70 170.91 137.72
  Q 165.79 137.74 161.77 136.34
  Q 147.93 131.51 146.17 116.13
  A 5.09 4.76 47.5 0 1 146.18 115.00
  C 146.65 111.64 146.74 108.58 147.94 105.76
  Q 150.73 99.16 156.27 95.77
  Q 159.15 94.01 166.43 91.61
  Q 170.94 90.13 177.21 89.70
  Q 187.29 89.01 196.50 89.67
  Q 200.09 89.93 200.34 87.98"
/>
<path stroke="#1b2e3b" vector-effect="non-scaling-stroke" d="
  M 738.75 65.91
  Q 738.05 66.25 737.32 66.08
  A 1.70 1.69 75.2 0 1 736.47 65.58
  Q 730.65 59.26 722.06 57.53
  C 714.68 56.04 704.79 56.72 697.67 60.38
  Q 691.98 63.30 689.06 66.06
  Q 677.00 77.48 676.32 95.30
  C 676.22 97.92 677.20 102.24 677.17 104.27
  Q 677.13 106.48 678.56 110.84
  Q 682.91 124.12 695.08 130.43
  C 698.80 132.36 701.47 132.94 706.35 134.49
  A 5.90 5.80 55.5 0 0 707.74 134.76
  Q 718.46 135.43 727.09 131.39
  Q 733.18 128.54 737.29 122.94
  A 0.63 0.63 0.0 0 1 738.25 122.87
  Q 738.49 123.11 738.70 123.58"
/>
<path stroke="#1b2e3b" vector-effect="non-scaling-stroke" d="
  M 739.03 125.25
  Q 739.39 126.16 739.82 126.00
  A 0.63 0.56 -12.0 0 1 740.67 126.48
  C 740.74 134.70 738.70 144.31 732.26 149.27
  Q 728.13 152.45 722.91 153.63
  Q 716.71 155.02 711.79 154.77
  C 703.74 154.36 695.85 152.14 688.77 147.62
  A 2.03 2.03 0.0 0 0 685.81 148.54
  L 681.57 158.51
  A 1.62 1.61 28.6 0 0 682.16 160.49
  C 688.00 164.40 694.36 166.22 701.27 167.99
  Q 704.81 168.89 708.30 169.01
  Q 717.27 169.31 717.99 169.28
  Q 730.46 168.78 741.22 161.92
  C 748.78 157.11 753.65 147.36 755.25 138.70
  Q 756.27 133.12 756.08 127.25
  Q 755.99 124.42 756.06 115.75
  Q 756.30 87.69 756.32 59.01
  A 1.07 1.07 0.0 0 0 755.25 57.94
  L 742.92 57.94
  A 2.05 2.04 -88.2 0 0 740.88 59.86
  L 740.57 64.68
  A 1.16 1.15 -18.2 0 1 740.15 65.50
  Q 739.78 65.80 739.34 65.92"
/>
<path stroke="#1b2e3b" vector-effect="non-scaling-stroke" d="
  M 546.24 113.42
  Q 545.99 114.12 545.40 113.84
  Q 544.84 113.58 544.61 112.97
  Q 536.98 92.73 528.98 72.57
  Q 526.20 65.57 524.14 59.68
  A 2.70 2.69 80.4 0 0 521.60 57.87
  L 507.06 57.87
  A 0.84 0.84 0.0 0 0 506.28 59.03
  L 537.76 136.07
  A 2.25 2.24 -51.0 0 1 537.89 137.33
  L 537.16 141.02
  A 4.80 4.54 65.2 0 1 536.77 142.18
  Q 536.42 142.94 533.76 146.77
  Q 530.44 151.55 525.48 153.23
  Q 520.28 154.99 515.45 155.15
  A 0.90 0.90 0.0 0 0 514.58 156.05
  L 514.58 167.95
  A 1.68 1.67 87.6 0 0 516.39 169.62
  Q 524.13 168.98 524.16 168.98
  Q 526.80 169.26 531.91 167.49
  Q 541.09 164.31 546.74 156.55
  C 547.69 155.24 548.69 152.85 549.78 150.62
  Q 550.94 148.25 551.79 146.05
  Q 574.42 87.68 585.63 59.56
  A 1.09 1.09 0.0 0 0 584.62 58.06
  L 569.94 58.06
  A 1.75 1.74 10.1 0 0 568.30 59.20
  L 548.50 112.96
  A 0.45 0.44 81.0 0 1 548.38 113.13
  Q 547.49 113.92 546.81 113.17"
/>
<path stroke="#1b2e3b" vector-effect="non-scaling-stroke" d="
  M 240.44 130.62
  Q 241.19 94.41 240.42 58.22"
/>
<path stroke="#176289" vector-effect="non-scaling-stroke" d="
  M 375.01 110.18
  A 2.64 2.59 65.8 0 1 372.34 109.14
  Q 370.75 106.95 369.71 104.30
  Q 366.83 97.01 360.80 83.22
  Q 355.63 71.42 353.74 66.50
  Q 350.42 57.90 346.75 49.79
  Q 344.23 44.23 337.97 28.59
  Q 336.77 25.61 333.58 25.63
  Q 328.38 25.65 312.01 25.69
  A 1.09 1.09 0.0 0 0 311.02 27.22
  L 358.28 134.75
  A 2.06 2.05 78.1 0 0 360.16 135.98
  L 386.29 135.98
  A 0.84 0.84 0.0 0 0 387.06 135.48
  Q 388.54 132.22 402.01 104.49
  Q 427.22 52.54 435.67 35.40
  Q 441.49 23.61 448.00 8.88
  A 2.19 2.11 18.1 0 0 446.44 5.94
  Q 446.16 5.88 444.94 6.39
  Q 442.50 7.41 440.06 8.80
  A 4.66 4.38 -66.8 0 1 439.12 9.21
  Q 435.86 10.20 433.48 11.62
  C 427.45 15.21 420.80 17.95 414.44 21.53
  Q 412.32 22.72 408.98 24.21
  Q 404.58 26.17 400.78 28.16
  Q 387.02 35.37 377.55 40.05
  Q 375.91 40.87 375.78 40.92
  Q 369.61 43.59 363.38 47.20
  A 3.53 3.47 23.1 0 1 362.33 47.61
  Q 361.10 47.87 359.80 49.39
  A 1.16 1.16 0.0 0 0 359.95 51.04
  C 362.54 53.14 365.50 54.72 369.00 55.19
  Q 374.10 55.88 376.56 56.00
  A 6.68 2.94 5.5 0 0 377.49 56.01
  Q 378.40 56.01 382.67 54.25
  Q 385.22 53.19 396.26 48.63
  Q 397.05 48.30 399.66 48.08
  A 0.65 0.64 78.4 0 1 400.32 48.52
  L 401.00 50.67
  A 0.83 0.83 0.0 0 1 400.91 51.35
  Q 399.03 54.30 398.84 54.86
  C 397.02 60.45 393.40 65.92 391.60 71.12
  Q 390.67 73.83 387.03 82.01
  Q 385.45 85.57 382.48 92.87
  Q 379.55 100.08 376.30 106.81
  A 1.88 1.77 58.4 0 0 376.12 107.69
  Q 376.25 109.91 375.01 110.18"
/>
<path stroke="#1b2e3b" vector-effect="non-scaling-stroke" d="
  M 259.2523 31.1511
  A 10.64 10.11 -18.8 0 0 245.9219 25.0094
  A 10.64 10.11 -18.8 0 0 239.1077 38.0089
  A 10.64 10.11 -18.8 0 0 252.4381 44.1506
  A 10.64 10.11 -18.8 0 0 259.2523 31.1511"
/>
<path stroke="#1b2e3b" vector-effect="non-scaling-stroke" d="
  M 295.52 26.76
  A 0.79 0.79 0.0 0 0 294.73 25.97
  L 279.13 25.97
  A 0.79 0.79 0.0 0 0 278.34 26.76
  L 278.34 135.68
  A 0.79 0.79 0.0 0 0 279.13 136.47
  L 294.73 136.47
  A 0.79 0.79 0.0 0 0 295.52 135.68
  L 295.52 26.76"
/>
<path stroke="#1b2e3b" vector-effect="non-scaling-stroke" d="
  M 423.97 104.19
  L 427.33 114.70
  A 1.21 1.00 -73.3 0 0 427.44 114.96
  C 432.30 124.12 437.22 130.83 446.80 134.65
  Q 457.17 138.79 468.71 137.82
  Q 481.48 136.73 490.87 128.68
  C 500.92 120.06 504.84 108.97 504.72 95.99
  Q 504.65 87.03 501.41 79.91
  Q 496.40 68.89 485.29 62.19
  Q 484.56 61.75 480.88 59.90
  Q 478.41 58.66 476.22 58.25
  Q 464.73 56.06 455.47 57.75
  Q 442.54 60.11 433.25 70.74
  Q 431.71 72.51 427.42 80.03
  A 4.52 4.23 69.6 0 0 427.04 80.94
  Q 426.50 82.88 424.12 91.98
  Q 423.69 93.62 423.91 103.87
  A 1.45 1.21 39.7 0 0 423.97 104.19"
/>
<path stroke="#1b2e3b" vector-effect="non-scaling-stroke" d="
  M 644.53 126.58
  L 644.28 127.26
  A 1.41 1.31 -43.1 0 0 644.23 128.00
  Q 644.82 131.01 644.69 133.72
  Q 644.55 136.50 646.66 136.35
  Q 652.99 135.91 658.79 136.72
  A 1.98 1.98 0.0 0 0 661.05 134.83
  C 661.22 130.28 660.89 125.85 660.89 122.04
  Q 660.89 99.68 660.73 87.51
  C 660.62 78.94 658.37 68.97 651.31 63.81
  Q 643.14 57.83 632.72 57.32
  Q 623.21 56.86 619.48 57.27
  Q 607.08 58.66 595.97 65.86
  A 2.66 2.65 64.8 0 0 594.88 68.90
  L 598.26 79.52
  A 1.06 1.06 0.0 0 0 599.93 80.02
  Q 601.37 78.87 606.15 76.03
  Q 610.39 73.52 612.84 72.63
  Q 621.75 69.39 631.86 71.18
  C 641.90 72.96 644.09 78.40 645.54 87.51
  A 1.44 1.43 80.6 0 1 644.37 89.15
  L 640.23 89.86
  A 0.46 0.29 31.7 0 1 640.10 89.86
  Q 623.75 88.77 614.54 90.41
  C 602.85 92.50 589.46 99.95 589.92 114.05
  Q 590.10 119.25 590.44 120.61
  Q 593.43 132.61 604.58 136.19
  C 614.24 139.28 626.80 138.91 635.54 132.75
  Q 638.00 131.02 643.62 125.96
  A 0.57 0.57 0.0 0 1 644.53 126.58"
/>
<path stroke="#1d2b35" vector-effect="non-scaling-stroke" d="
  M 785.82 90.44
  Q 787.05 91.45 789.25 91.32
  Q 793.98 91.05 820.50 91.13
  Q 824.26 91.14 827.86 90.69
  A 0.97 0.95 -80.2 0 0 828.61 90.15
  C 830.26 86.73 826.55 79.11 824.12 76.63
  Q 814.55 66.87 801.27 70.47
  Q 796.07 71.88 792.83 75.32
  Q 787.27 81.22 785.32 88.93
  A 1.49 1.48 26.9 0 0 785.82 90.44"
/>
<path stroke="#1b2e3b" vector-effect="non-scaling-stroke" d="
  M 257.90 58.86
  A 0.75 0.75 0.0 0 0 257.15 58.11
  L 242.77 58.11
  A 0.75 0.75 0.0 0 0 242.02 58.86
  L 242.02 135.50
  A 0.75 0.75 0.0 0 0 242.77 136.25
  L 257.15 136.25
  A 0.75 0.75 0.0 0 0 257.90 135.50
  L 257.90 58.86"
/>
<path stroke="#1b2e3b" vector-effect="non-scaling-stroke" d="
  M 718.3481 70.4549
  A 25.24 23.85 -85.3 0 0 692.5102 93.6558
  A 25.24 23.85 -85.3 0 0 714.2119 120.7651
  A 25.24 23.85 -85.3 0 0 740.0498 97.5642
  A 25.24 23.85 -85.3 0 0 718.3481 70.4549"
/>
<path stroke="#1b2e3b" vector-effect="non-scaling-stroke" d="
  M 199.50 98.82
  Q 182.07 99.38 177.37 100.21
  C 171.92 101.17 166.26 103.84 164.30 109.41
  C 162.09 115.70 164.52 121.16 170.09 124.13
  C 171.84 125.06 174.53 125.30 176.27 125.82
  A 2.73 2.63 -37.9 0 0 177.32 125.93
  Q 183.69 125.38 186.67 124.45
  Q 194.60 121.96 199.79 115.28
  A 4.36 4.11 76.1 0 0 200.37 114.25
  Q 202.85 107.88 202.07 102.28
  Q 201.88 100.93 200.60 99.33
  A 1.36 1.35 -19.9 0 0 199.50 98.82"
/>
<path stroke="#1b2e3b" vector-effect="non-scaling-stroke" d="
  M 463.0313 70.3349
  A 27.25 24.22 -92.9 0 0 440.2210 98.7754
  A 27.25 24.22 -92.9 0 0 465.7887 124.7651
  A 27.25 24.22 -92.9 0 0 488.5990 96.3246
  A 27.25 24.22 -92.9 0 0 463.0313 70.3349"
/>
<path stroke="#1b2e3b" vector-effect="non-scaling-stroke" d="
  M 643.94 99.92
  Q 642.13 98.88 639.75 98.94
  Q 634.13 99.09 623.37 99.85
  Q 617.76 100.25 612.91 102.85
  C 608.34 105.30 607.05 107.91 606.73 113.04
  Q 606.36 118.80 610.35 122.41
  C 613.66 125.41 618.40 125.76 622.73 125.52
  Q 631.33 125.05 638.01 119.70
  Q 646.60 112.81 644.94 101.40
  A 2.05 2.04 11.1 0 0 643.94 99.92"
/>
</g>
<path fill="#28475c" d="
  M 399.48 49.40
  A 0.58 0.58 0.0 0 0 398.67 48.67
  Q 393.10 51.75 383.63 55.47
  Q 377.85 57.74 372.89 57.32
  Q 366.53 56.78 361.72 53.88
  A 1.25 0.41 18.0 0 0 361.61 53.80
  L 357.01 50.03
  A 0.58 0.58 0.0 0 1 357.12 49.07
  Q 431.07 11.40 431.33 11.27
  Q 437.76 8.03 444.13 5.33
  Q 448.09 3.65 449.65 7.38
  A 1.68 1.65 44.5 0 1 449.67 8.60
  Q 448.20 12.61 448.01 13.01
  Q 442.46 24.90 437.65 34.66
  Q 424.48 61.43 387.57 137.57
  A 0.62 0.59 12.1 0 1 387.02 137.91
  L 358.72 137.91
  A 0.65 0.62 -10.9 0 1 358.13 137.53
  L 309.67 27.28
  A 1.71 1.57 35.0 0 1 309.52 26.60
  L 309.52 24.58
  A 0.48 0.48 0.0 0 1 310.00 24.10
  L 336.82 24.10
  A 0.71 0.70 -11.3 0 1 337.47 24.53
  L 373.51 109.90
  A 0.13 0.12 -44.5 0 0 373.74 109.90
  L 399.48 49.40
  Z
  M 375.01 110.18
  A 2.64 2.59 65.8 0 1 372.34 109.14
  Q 370.75 106.95 369.71 104.30
  Q 366.83 97.01 360.80 83.22
  Q 355.63 71.42 353.74 66.50
  Q 350.42 57.90 346.75 49.79
  Q 344.23 44.23 337.97 28.59
  Q 336.77 25.61 333.58 25.63
  Q 328.38 25.65 312.01 25.69
  A 1.09 1.09 0.0 0 0 311.02 27.22
  L 358.28 134.75
  A 2.06 2.05 78.1 0 0 360.16 135.98
  L 386.29 135.98
  A 0.84 0.84 0.0 0 0 387.06 135.48
  Q 388.54 132.22 402.01 104.49
  Q 427.22 52.54 435.67 35.40
  Q 441.49 23.61 448.00 8.88
  A 2.19 2.11 18.1 0 0 446.44 5.94
  Q 446.16 5.88 444.94 6.39
  Q 442.50 7.41 440.06 8.80
  A 4.66 4.38 -66.8 0 1 439.12 9.21
  Q 435.86 10.20 433.48 11.62
  C 427.45 15.21 420.80 17.95 414.44 21.53
  Q 412.32 22.72 408.98 24.21
  Q 404.58 26.17 400.78 28.16
  Q 387.02 35.37 377.55 40.05
  Q 375.91 40.87 375.78 40.92
  Q 369.61 43.59 363.38 47.20
  A 3.53 3.47 23.1 0 1 362.33 47.61
  Q 361.10 47.87 359.80 49.39
  A 1.16 1.16 0.0 0 0 359.95 51.04
  C 362.54 53.14 365.50 54.72 369.00 55.19
  Q 374.10 55.88 376.56 56.00
  A 6.68 2.94 5.5 0 0 377.49 56.01
  Q 378.40 56.01 382.67 54.25
  Q 385.22 53.19 396.26 48.63
  Q 397.05 48.30 399.66 48.08
  A 0.65 0.64 78.4 0 1 400.32 48.52
  L 401.00 50.67
  A 0.83 0.83 0.0 0 1 400.91 51.35
  Q 399.03 54.30 398.84 54.86
  C 397.02 60.45 393.40 65.92 391.60 71.12
  Q 390.67 73.83 387.03 82.01
  Q 385.45 85.57 382.48 92.87
  Q 379.55 100.08 376.30 106.81
  A 1.88 1.77 58.4 0 0 376.12 107.69
  Q 376.25 109.91 375.01 110.18
  Z"
/>
<path fill="#067db6" d="
  M 375.01 110.18
  Q 376.25 109.91 376.12 107.69
  A 1.88 1.77 58.4 0 1 376.30 106.81
  Q 379.55 100.08 382.48 92.87
  Q 385.45 85.57 387.03 82.01
  Q 390.67 73.83 391.60 71.12
  C 393.40 65.92 397.02 60.45 398.84 54.86
  Q 399.03 54.30 400.91 51.35
  A 0.83 0.83 0.0 0 0 401.00 50.67
  L 400.32 48.52
  A 0.65 0.64 78.4 0 0 399.66 48.08
  Q 397.05 48.30 396.26 48.63
  Q 385.22 53.19 382.67 54.25
  Q 378.40 56.01 377.49 56.01
  A 6.68 2.94 5.5 0 1 376.56 56.00
  Q 374.10 55.88 369.00 55.19
  C 365.50 54.72 362.54 53.14 359.95 51.04
  A 1.16 1.16 0.0 0 1 359.80 49.39
  Q 361.10 47.87 362.33 47.61
  A 3.53 3.47 23.1 0 0 363.38 47.20
  Q 369.61 43.59 375.78 40.92
  Q 375.91 40.87 377.55 40.05
  Q 387.02 35.37 400.78 28.16
  Q 404.58 26.17 408.98 24.21
  Q 412.32 22.72 414.44 21.53
  C 420.80 17.95 427.45 15.21 433.48 11.62
  Q 435.86 10.20 439.12 9.21
  A 4.66 4.38 -66.8 0 0 440.06 8.80
  Q 442.50 7.41 444.94 6.39
  Q 446.16 5.88 446.44 5.94
  A 2.19 2.11 18.1 0 1 448.00 8.88
  Q 441.49 23.61 435.67 35.40
  Q 427.22 52.54 402.01 104.49
  Q 388.54 132.22 387.06 135.48
  A 0.84 0.84 0.0 0 1 386.29 135.98
  L 360.16 135.98
  A 2.06 2.05 78.1 0 1 358.28 134.75
  L 311.02 27.22
  A 1.09 1.09 0.0 0 1 312.01 25.69
  Q 328.38 25.65 333.58 25.63
  Q 336.77 25.61 337.97 28.59
  Q 344.23 44.23 346.75 49.79
  Q 350.42 57.90 353.74 66.50
  Q 355.63 71.42 360.80 83.22
  Q 366.83 97.01 369.71 104.30
  Q 370.75 106.95 372.34 109.14
  A 2.64 2.59 65.8 0 0 375.01 110.18
  Z"
/>
<path fill="#0d1519" d="
  M 261.0252 32.1771
  A 12.11 11.61 -11.3 0 1 251.4249 45.9349
  A 12.11 11.61 -11.3 0 1 237.2748 36.9229
  A 12.11 11.61 -11.3 0 1 246.8751 23.1651
  A 12.11 11.61 -11.3 0 1 261.0252 32.1771
  Z
  M 259.2523 31.1511
  A 10.64 10.11 -18.8 0 0 245.9219 25.0094
  A 10.64 10.11 -18.8 0 0 239.1077 38.0089
  A 10.64 10.11 -18.8 0 0 252.4381 44.1506
  A 10.64 10.11 -18.8 0 0 259.2523 31.1511
  Z"
/>
<path fill="#0d1519" d="
  M 106.60 58.28
  L 107.01 58.49
  A 0.95 0.94 10.4 0 1 107.51 59.21
  Q 107.94 62.71 107.92 67.63
  Q 107.81 85.71 107.75 135.31
  A 1.32 1.31 88.6 0 0 109.13 136.63
  Q 115.79 136.31 122.50 136.76
  Q 124.83 136.91 124.85 134.58
  Q 125.04 115.16 124.70 94.03
  Q 124.44 77.38 124.71 60.35
  Q 124.96 43.83 124.50 26.59
  A 0.84 0.84 0.0 0 0 123.66 25.77
  L 105.88 25.77
  A 2.04 2.02 -75.5 0 0 104.10 26.83
  L 68.67 91.35
  A 1.82 1.81 -67.5 0 1 66.59 92.22
  Q 66.33 92.15 65.81 92.32
  A 1.22 1.21 -33.6 0 1 64.63 92.09
  Q 64.13 91.66 64.12 90.91
  A 1.01 0.98 31.1 0 0 63.99 90.42
  L 28.36 27.35
  A 3.01 3.00 -14.6 0 0 25.74 25.82
  L 8.54 25.82
  A 0.86 0.85 -0.0 0 0 7.68 26.67
  L 7.68 135.18
  A 0.94 0.94 0.0 0 0 8.62 136.12
  L 24.23 136.12
  A 0.97 0.97 0.0 0 0 25.19 134.99
  L 24.68 132.02
  A 3.35 3.09 46.2 0 1 24.66 131.01
  C 25.10 127.49 24.56 123.71 24.59 120.66
  Q 24.84 96.02 24.40 76.75
  Q 24.25 69.97 24.12 59.22
  A 0.62 0.62 0.0 0 1 24.85 58.61
  Q 25.91 58.79 26.99 58.37
  A 0.69 0.69 0.0 0 1 27.82 58.63
  Q 35.79 70.91 39.37 77.62
  Q 42.97 84.36 45.12 87.83
  C 50.18 96.03 55.36 105.87 59.93 113.33
  Q 62.96 118.28 65.24 123.49
  A 0.78 0.77 -41.7 0 0 66.62 123.57
  L 104.12 58.61
  A 1.04 1.03 11.6 0 1 104.90 58.10
  L 105.57 58.02
  L 67.23 125.42
  A 0.85 0.85 0.0 0 1 65.92 125.63
  Q 64.12 124.01 63.31 122.44
  Q 62.92 121.69 26.71 58.93
  A 0.42 0.42 0.0 0 0 25.93 59.14
  L 25.93 137.55
  A 0.39 0.38 -0.0 0 1 25.54 137.93
  L 6.57 137.93
  A 0.53 0.53 0.0 0 1 6.04 137.40
  L 6.04 24.68
  A 0.51 0.51 0.0 0 1 6.55 24.17
  L 27.36 24.17
  A 1.40 1.39 -14.8 0 1 28.57 24.87
  L 65.77 90.71
  A 0.89 0.89 0.0 0 0 67.32 90.71
  L 103.76 24.87
  A 1.36 1.35 -75.2 0 1 104.94 24.18
  L 125.43 24.18
  A 0.58 0.58 0.0 0 1 126.01 24.76
  L 126.01 137.39
  A 0.54 0.54 0.0 0 1 125.47 137.93
  L 107.11 137.93
  A 0.55 0.54 90.0 0 1 106.57 137.38
  L 106.60 58.28
  Z"
/>
<path fill="#0d1519" d="
  M 296.94 137.50
  A 0.46 0.46 0.0 0 1 296.48 137.96
  L 277.46 137.96
  A 0.46 0.46 0.0 0 1 277.00 137.50
  L 277.00 24.72
  A 0.46 0.46 0.0 0 1 277.46 24.26
  L 296.48 24.26
  A 0.46 0.46 0.0 0 1 296.94 24.72
  L 296.94 137.50
  Z
  M 295.52 26.76
  A 0.79 0.79 0.0 0 0 294.73 25.97
  L 279.13 25.97
  A 0.79 0.79 0.0 0 0 278.34 26.76
  L 278.34 135.68
  A 0.79 0.79 0.0 0 0 279.13 136.47
  L 294.73 136.47
  A 0.79 0.79 0.0 0 0 295.52 135.68
  L 295.52 26.76
  Z"
/>
<ellipse fill="#28475c" cx="0.00" cy="0.00" transform="translate(249.18,34.58) rotate(-18.8)" rx="10.64" ry="10.11"/>
<path fill="#2c4150" d="
  M 106.60 58.28
  L 106.25 57.72
  A 0.21 0.21 0.0 0 0 106.07 57.62
  Q 105.77 57.62 105.57 58.02
  L 104.90 58.10
  A 1.04 1.03 11.6 0 0 104.12 58.61
  L 66.62 123.57
  A 0.78 0.77 -41.7 0 1 65.24 123.49
  Q 62.96 118.28 59.93 113.33
  C 55.36 105.87 50.18 96.03 45.12 87.83
  Q 42.97 84.36 39.37 77.62
  Q 35.79 70.91 27.82 58.63
  A 0.69 0.69 0.0 0 0 26.99 58.37
  Q 25.91 58.79 24.85 58.61
  A 0.62 0.62 0.0 0 0 24.12 59.22
  Q 24.25 69.97 24.40 76.75
  Q 24.84 96.02 24.59 120.66
  C 24.56 123.71 25.10 127.49 24.66 131.01
  A 3.35 3.09 46.2 0 0 24.68 132.02
  L 25.19 134.99
  A 0.97 0.97 0.0 0 1 24.23 136.12
  L 8.62 136.12
  A 0.94 0.94 0.0 0 1 7.68 135.18
  L 7.68 26.67
  A 0.86 0.85 -0.0 0 1 8.54 25.82
  L 25.74 25.82
  A 3.01 3.00 -14.6 0 1 28.36 27.35
  L 63.99 90.42
  A 1.01 0.98 31.1 0 1 64.12 90.91
  Q 64.13 91.66 64.63 92.09
  A 1.22 1.21 -33.6 0 0 65.81 92.32
  Q 66.33 92.15 66.59 92.22
  A 1.82 1.81 -67.5 0 0 68.67 91.35
  L 104.10 26.83
  A 2.04 2.02 -75.5 0 1 105.88 25.77
  L 123.66 25.77
  A 0.84 0.84 0.0 0 1 124.50 26.59
  Q 124.96 43.83 124.71 60.35
  Q 124.44 77.38 124.70 94.03
  Q 125.04 115.16 124.85 134.58
  Q 124.83 136.91 122.50 136.76
  Q 115.79 136.31 109.13 136.63
  A 1.32 1.31 88.6 0 1 107.75 135.31
  Q 107.81 85.71 107.92 67.63
  Q 107.94 62.71 107.51 59.21
  A 0.95 0.94 10.4 0 0 107.01 58.49
  L 106.60 58.28
  Z"
/>
<rect fill="#28475c" x="278.34" y="25.97" width="17.18" height="110.50" rx="0.79"/>
<path fill="#0d1519" d="
  M 838.49 121.49
  Q 838.33 121.55 838.44 121.84
  A 0.40 0.40 0.0 0 1 837.81 122.28
  L 832.30 117.81
  A 1.57 1.55 43.9 0 0 830.30 117.84
  C 824.51 122.83 814.67 127.36 806.96 125.52
  Q 805.32 125.13 803.08 125.03
  A 2.89 2.89 0.0 0 1 801.89 124.71
  L 794.33 120.74
  A 5.76 5.65 -8.7 0 1 793.11 119.86
  C 789.26 116.21 784.29 108.01 786.43 102.43
  A 1.38 1.37 10.6 0 1 787.71 101.56
  L 843.08 101.56
  A 1.95 1.95 0.0 0 0 845.03 99.67
  Q 845.25 92.30 843.73 84.93
  C 841.16 72.49 834.05 63.42 822.35 58.76
  Q 817.70 56.91 811.03 56.71
  Q 802.68 56.47 799.50 57.26
  Q 790.70 59.45 784.08 64.65
  C 774.81 71.94 769.45 84.02 768.83 95.49
  C 767.98 111.00 774.84 126.15 788.81 133.44
  Q 795.04 136.69 804.66 137.95
  C 807.20 138.28 809.32 137.86 811.75 138.10
  Q 814.03 138.34 816.99 137.75
  Q 825.18 136.13 832.34 131.83
  Q 837.85 128.52 840.73 123.41
  Q 841.41 123.56 841.66 124.18
  Q 842.03 125.10 841.33 125.85
  C 830.81 137.15 818.44 140.74 803.42 139.24
  C 785.63 137.45 772.24 125.63 768.33 107.95
  Q 767.81 105.57 767.62 97.55
  Q 767.40 88.02 771.28 79.27
  Q 779.42 60.90 798.78 56.11
  Q 804.65 54.66 812.33 55.35
  C 830.77 57.01 842.95 69.39 845.74 87.43
  Q 846.87 94.71 846.12 102.59
  A 0.55 0.54 -87.1 0 1 845.58 103.08
  L 787.45 103.08
  A 0.67 0.66 -4.1 0 0 786.79 103.84
  C 790.14 127.20 816.44 129.99 830.78 115.15
  A 0.59 0.59 0.0 0 1 831.61 115.13
  L 838.49 121.49
  Z"
/>
<path fill="#0d1519" d="
  M 219.39 87.96
  L 219.50 106.64
  L 219.70 137.30
  A 0.65 0.64 0.0 0 1 219.05 137.94
  L 202.35 137.94
  A 0.55 0.54 -1.1 0 1 201.80 137.42
  L 201.52 129.67
  Q 202.89 128.88 202.91 132.03
  Q 202.92 133.68 202.82 135.05
  A 1.18 1.18 0.0 0 0 204.00 136.31
  L 217.35 136.31
  A 0.70 0.69 0.0 0 0 218.05 135.62
  C 218.00 117.69 218.09 102.92 217.96 87.36
  Q 217.91 81.52 217.09 78.14
  C 215.58 71.88 212.13 65.76 207.27 62.74
  Q 197.68 56.79 184.99 57.00
  Q 174.87 57.17 170.00 58.36
  C 164.66 59.66 156.80 62.62 152.49 67.00
  A 0.99 0.98 -32.9 0 0 152.26 68.04
  L 153.62 71.69
  A 2.66 2.62 30.5 0 1 153.74 72.14
  L 155.19 79.44
  A 1.24 1.24 0.0 0 0 157.16 80.18
  Q 165.50 73.78 174.45 71.16
  A 4.94 4.53 -52.2 0 1 175.50 70.98
  C 183.53 70.51 188.83 70.57 195.78 73.95
  A 3.47 3.43 79.0 0 1 196.60 74.51
  Q 201.84 79.41 201.96 86.93
  A 0.56 0.54 -75.7 0 1 201.15 87.43
  Q 200.97 87.32 200.88 87.14
  C 200.15 77.07 193.89 72.64 184.14 72.09
  C 173.64 71.50 164.24 75.99 156.16 82.61
  A 0.75 0.75 0.0 0 1 154.96 82.23
  L 151.05 68.03
  A 2.46 2.44 -25.6 0 1 151.99 65.38
  Q 165.05 56.07 181.26 55.43
  C 192.49 55.00 205.23 57.18 212.43 65.53
  C 217.78 71.74 219.81 79.80 219.39 87.96
  Z"
/>
<path fill="#0d1519" d="
  M 506.06 96.42
  C 506.41 110.40 501.29 122.49 490.35 130.89
  C 475.42 142.37 453.83 142.60 438.77 131.39
  C 428.38 123.66 423.00 112.01 422.67 98.52
  C 422.33 85.02 427.11 73.12 437.10 64.88
  C 451.58 52.93 473.15 52.08 488.64 62.79
  C 499.99 70.63 505.71 82.44 506.06 96.42
  Z
  M 423.97 104.19
  L 427.33 114.70
  A 1.21 1.00 -73.3 0 0 427.44 114.96
  C 432.30 124.12 437.22 130.83 446.80 134.65
  Q 457.17 138.79 468.71 137.82
  Q 481.48 136.73 490.87 128.68
  C 500.92 120.06 504.84 108.97 504.72 95.99
  Q 504.65 87.03 501.41 79.91
  Q 496.40 68.89 485.29 62.19
  Q 484.56 61.75 480.88 59.90
  Q 478.41 58.66 476.22 58.25
  Q 464.73 56.06 455.47 57.75
  Q 442.54 60.11 433.25 70.74
  Q 431.71 72.51 427.42 80.03
  A 4.52 4.23 69.6 0 0 427.04 80.94
  Q 426.50 82.88 424.12 91.98
  Q 423.69 93.62 423.91 103.87
  A 1.45 1.21 39.7 0 0 423.97 104.19
  Z"
/>
<path fill="#0d1519" d="
  M 643.85 127.93
  A 0.31 0.31 0.0 0 0 643.31 127.72
  C 637.66 133.65 631.90 137.60 623.53 139.00
  Q 612.76 140.79 602.84 137.17
  C 592.07 133.25 587.02 122.26 588.33 111.42
  C 589.18 104.33 593.81 97.68 599.66 94.39
  Q 607.00 90.27 614.16 89.26
  C 616.82 88.89 619.82 88.14 622.96 88.06
  Q 631.65 87.84 643.03 87.90
  A 0.76 0.76 0.0 0 0 643.79 87.01
  L 642.76 81.12
  A 0.93 0.91 -62.7 0 0 642.69 80.89
  Q 640.07 74.80 634.46 73.26
  Q 624.01 70.40 614.10 73.76
  Q 606.48 76.34 599.29 82.26
  A 1.06 1.06 0.0 0 1 597.61 81.76
  L 593.18 67.83
  A 1.88 1.87 -26.2 0 1 593.90 65.72
  Q 615.70 50.58 641.26 57.45
  Q 657.00 61.68 660.75 76.97
  Q 662.17 82.76 662.14 91.25
  Q 662.04 119.23 662.33 137.47
  A 0.45 0.45 0.0 0 1 661.88 137.92
  L 644.18 137.92
  A 0.33 0.33 0.0 0 1 643.85 137.59
  L 643.85 127.93
  Z
  M 644.53 126.58
  L 644.28 127.26
  A 1.41 1.31 -43.1 0 0 644.23 128.00
  Q 644.82 131.01 644.69 133.72
  Q 644.55 136.50 646.66 136.35
  Q 652.99 135.91 658.79 136.72
  A 1.98 1.98 0.0 0 0 661.05 134.83
  C 661.22 130.28 660.89 125.85 660.89 122.04
  Q 660.89 99.68 660.73 87.51
  C 660.62 78.94 658.37 68.97 651.31 63.81
  Q 643.14 57.83 632.72 57.32
  Q 623.21 56.86 619.48 57.27
  Q 607.08 58.66 595.97 65.86
  A 2.66 2.65 64.8 0 0 594.88 68.90
  L 598.26 79.52
  A 1.06 1.06 0.0 0 0 599.93 80.02
  Q 601.37 78.87 606.15 76.03
  Q 610.39 73.52 612.84 72.63
  Q 621.75 69.39 631.86 71.18
  C 641.90 72.96 644.09 78.40 645.54 87.51
  A 1.44 1.43 80.6 0 1 644.37 89.15
  L 640.23 89.86
  A 0.46 0.29 31.7 0 1 640.10 89.86
  Q 623.75 88.77 614.54 90.41
  C 602.85 92.50 589.46 99.95 589.92 114.05
  Q 590.10 119.25 590.44 120.61
  Q 593.43 132.61 604.58 136.19
  C 614.24 139.28 626.80 138.91 635.54 132.75
  Q 638.00 131.02 643.62 125.96
  A 0.57 0.57 0.0 0 1 644.53 126.58
  Z"
/>
<path fill="#0d1519" d="
  M 738.75 65.91
  Q 738.05 66.25 737.32 66.08
  A 1.70 1.69 75.2 0 1 736.47 65.58
  Q 730.65 59.26 722.06 57.53
  C 714.68 56.04 704.79 56.72 697.67 60.38
  Q 691.98 63.30 689.06 66.06
  Q 677.00 77.48 676.32 95.30
  C 676.22 97.92 677.20 102.24 677.17 104.27
  Q 677.13 106.48 678.56 110.84
  Q 682.91 124.12 695.08 130.43
  C 698.80 132.36 701.47 132.94 706.35 134.49
  A 5.90 5.80 55.5 0 0 707.74 134.76
  Q 718.46 135.43 727.09 131.39
  Q 733.18 128.54 737.29 122.94
  A 0.63 0.63 0.0 0 1 738.25 122.87
  Q 738.49 123.11 738.70 123.58
  Q 726.87 138.15 708.55 136.11
  Q 690.59 134.12 681.30 119.51
  Q 675.47 110.35 674.90 99.02
  C 674.07 82.15 681.61 67.39 696.60 59.36
  Q 698.89 58.13 701.01 57.50
  C 702.71 56.99 705.13 56.16 707.19 55.81
  Q 725.74 52.72 738.75 65.91
  Z"
/>
<path fill="#0d1519" d="
  M 546.24 113.42
  Q 545.99 114.12 545.40 113.84
  Q 544.84 113.58 544.61 112.97
  Q 536.98 92.73 528.98 72.57
  Q 526.20 65.57 524.14 59.68
  A 2.70 2.69 80.4 0 0 521.60 57.87
  L 507.06 57.87
  A 0.84 0.84 0.0 0 0 506.28 59.03
  L 537.76 136.07
  A 2.25 2.24 -51.0 0 1 537.89 137.33
  L 537.16 141.02
  A 4.80 4.54 65.2 0 1 536.77 142.18
  Q 536.42 142.94 533.76 146.77
  Q 530.44 151.55 525.48 153.23
  Q 520.28 154.99 515.45 155.15
  A 0.90 0.90 0.0 0 0 514.58 156.05
  L 514.58 167.95
  A 1.68 1.67 87.6 0 0 516.39 169.62
  Q 524.13 168.98 524.16 168.98
  Q 526.80 169.26 531.91 167.49
  Q 541.09 164.31 546.74 156.55
  C 547.69 155.24 548.69 152.85 549.78 150.62
  Q 550.94 148.25 551.79 146.05
  Q 574.42 87.68 585.63 59.56
  A 1.09 1.09 0.0 0 0 584.62 58.06
  L 569.94 58.06
  A 1.75 1.74 10.1 0 0 568.30 59.20
  L 548.50 112.96
  A 0.45 0.44 81.0 0 1 548.38 113.13
  Q 547.49 113.92 546.81 113.17
  L 567.55 57.47
  A 1.41 1.40 10.1 0 1 568.87 56.56
  L 587.79 56.56
  A 0.45 0.45 0.0 0 1 588.21 57.18
  Q 571.14 100.15 554.38 143.63
  Q 552.40 148.76 549.92 153.43
  Q 544.06 164.45 533.01 168.57
  C 527.60 170.59 520.54 170.98 514.34 170.92
  A 0.99 0.99 0.0 0 1 513.36 169.93
  L 513.36 154.19
  A 0.84 0.84 0.0 0 1 514.28 153.35
  C 518.86 153.82 525.53 152.77 529.00 149.62
  Q 534.60 144.52 536.29 138.74
  A 4.04 4.00 42.2 0 0 536.15 136.10
  L 503.98 57.36
  A 0.54 0.53 78.8 0 1 504.47 56.62
  L 523.25 56.62
  A 1.53 1.53 0.0 0 1 524.68 57.60
  L 546.24 113.42
  Z"
/>
<path fill="#0d1519" d="
  M 739.03 125.25
  Q 739.39 126.16 739.82 126.00
  A 0.63 0.56 -12.0 0 1 740.67 126.48
  C 740.74 134.70 738.70 144.31 732.26 149.27
  Q 728.13 152.45 722.91 153.63
  Q 716.71 155.02 711.79 154.77
  C 703.74 154.36 695.85 152.14 688.77 147.62
  A 2.03 2.03 0.0 0 0 685.81 148.54
  L 681.57 158.51
  A 1.62 1.61 28.6 0 0 682.16 160.49
  C 688.00 164.40 694.36 166.22 701.27 167.99
  Q 704.81 168.89 708.30 169.01
  Q 717.27 169.31 717.99 169.28
  Q 730.46 168.78 741.22 161.92
  C 748.78 157.11 753.65 147.36 755.25 138.70
  Q 756.27 133.12 756.08 127.25
  Q 755.99 124.42 756.06 115.75
  Q 756.30 87.69 756.32 59.01
  A 1.07 1.07 0.0 0 0 755.25 57.94
  L 742.92 57.94
  A 2.05 2.04 -88.2 0 0 740.88 59.86
  L 740.57 64.68
  A 1.16 1.15 -18.2 0 1 740.15 65.50
  Q 739.78 65.80 739.34 65.92
  L 739.20 57.64
  A 1.03 1.03 0.0 0 1 740.23 56.59
  L 757.19 56.59
  A 0.74 0.74 0.0 0 1 757.91 57.48
  Q 757.63 58.71 757.64 60.39
  Q 757.70 92.73 757.65 121.75
  C 757.63 132.61 757.33 141.33 753.13 149.90
  Q 746.73 162.95 731.61 168.14
  C 716.18 173.43 698.46 170.66 684.14 163.28
  C 682.74 162.56 681.44 161.01 680.03 160.60
  A 0.43 0.43 0.0 0 1 679.76 160.02
  L 686.06 145.20
  A 0.63 0.62 29.1 0 1 686.99 144.94
  Q 692.09 148.56 697.04 150.21
  Q 706.56 153.37 713.28 153.48
  C 723.29 153.64 732.81 150.25 736.92 140.65
  Q 739.79 133.95 739.03 125.25
  Z"
/>
<path fill="#2c4150" d="
  M 838.49 121.49
  Q 839.60 121.98 840.73 123.41
  Q 837.85 128.52 832.34 131.83
  Q 825.18 136.13 816.99 137.75
  Q 814.03 138.34 811.75 138.10
  C 809.32 137.86 807.20 138.28 804.66 137.95
  Q 795.04 136.69 788.81 133.44
  C 774.84 126.15 767.98 111.00 768.83 95.49
  C 769.45 84.02 774.81 71.94 784.08 64.65
  Q 790.70 59.45 799.50 57.26
  Q 802.68 56.47 811.03 56.71
  Q 817.70 56.91 822.35 58.76
  C 834.05 63.42 841.16 72.49 843.73 84.93
  Q 845.25 92.30 845.03 99.67
  A 1.95 1.95 0.0 0 1 843.08 101.56
  L 787.71 101.56
  A 1.38 1.37 10.6 0 0 786.43 102.43
  C 784.29 108.01 789.26 116.21 793.11 119.86
  A 5.76 5.65 -8.7 0 0 794.33 120.74
  L 801.89 124.71
  A 2.89 2.89 0.0 0 0 803.08 125.03
  Q 805.32 125.13 806.96 125.52
  C 814.67 127.36 824.51 122.83 830.30 117.84
  A 1.57 1.55 43.9 0 1 832.30 117.81
  L 837.81 122.28
  A 0.40 0.40 0.0 0 0 838.44 121.84
  Q 838.33 121.55 838.49 121.49
  Z
  M 785.82 90.44
  Q 787.05 91.45 789.25 91.32
  Q 793.98 91.05 820.50 91.13
  Q 824.26 91.14 827.86 90.69
  A 0.97 0.95 -80.2 0 0 828.61 90.15
  C 830.26 86.73 826.55 79.11 824.12 76.63
  Q 814.55 66.87 801.27 70.47
  Q 796.07 71.88 792.83 75.32
  Q 787.27 81.22 785.32 88.93
  A 1.49 1.48 26.9 0 0 785.82 90.44
  Z"
/>
<path fill="#0d1519" d="
  M 240.44 130.62
  Q 241.19 94.41 240.42 58.22
  Q 239.63 57.38 240.26 56.83
  A 0.52 0.49 23.7 0 1 240.59 56.71
  L 258.36 56.71
  A 0.74 0.74 0.0 0 1 259.10 57.45
  L 259.10 137.39
  A 0.54 0.54 0.0 0 1 258.56 137.93
  L 240.86 137.93
  A 0.62 0.62 0.0 0 1 240.24 137.29
  L 240.44 130.62
  Z
  M 257.90 58.86
  A 0.75 0.75 0.0 0 0 257.15 58.11
  L 242.77 58.11
  A 0.75 0.75 0.0 0 0 242.02 58.86
  L 242.02 135.50
  A 0.75 0.75 0.0 0 0 242.77 136.25
  L 257.15 136.25
  A 0.75 0.75 0.0 0 0 257.90 135.50
  L 257.90 58.86
  Z"
/>
<path fill="#28475c" d="
  M 738.75 65.91
  Q 738.96 66.01 739.34 65.92
  Q 739.78 65.80 740.15 65.50
  A 1.16 1.15 -18.2 0 0 740.57 64.68
  L 740.88 59.86
  A 2.05 2.04 -88.2 0 1 742.92 57.94
  L 755.25 57.94
  A 1.07 1.07 0.0 0 1 756.32 59.01
  Q 756.30 87.69 756.06 115.75
  Q 755.99 124.42 756.08 127.25
  Q 756.27 133.12 755.25 138.70
  C 753.65 147.36 748.78 157.11 741.22 161.92
  Q 730.46 168.78 717.99 169.28
  Q 717.27 169.31 708.30 169.01
  Q 704.81 168.89 701.27 167.99
  C 694.36 166.22 688.00 164.40 682.16 160.49
  A 1.62 1.61 28.6 0 1 681.57 158.51
  L 685.81 148.54
  A 2.03 2.03 0.0 0 1 688.77 147.62
  C 695.85 152.14 703.74 154.36 711.79 154.77
  Q 716.71 155.02 722.91 153.63
  Q 728.13 152.45 732.26 149.27
  C 738.70 144.31 740.74 134.70 740.67 126.48
  A 0.63 0.56 -12.0 0 0 739.82 126.00
  Q 739.39 126.16 739.03 125.25
  Q 739.30 124.10 738.70 123.58
  Q 738.49 123.11 738.25 122.87
  A 0.63 0.63 0.0 0 0 737.29 122.94
  Q 733.18 128.54 727.09 131.39
  Q 718.46 135.43 707.74 134.76
  A 5.90 5.80 55.5 0 1 706.35 134.49
  C 701.47 132.94 698.80 132.36 695.08 130.43
  Q 682.91 124.12 678.56 110.84
  Q 677.13 106.48 677.17 104.27
  C 677.20 102.24 676.22 97.92 676.32 95.30
  Q 677.00 77.48 689.06 66.06
  Q 691.98 63.30 697.67 60.38
  C 704.79 56.72 714.68 56.04 722.06 57.53
  Q 730.65 59.26 736.47 65.58
  A 1.70 1.69 75.2 0 0 737.32 66.08
  Q 738.05 66.25 738.75 65.91
  Z
  M 718.3481 70.4549
  A 25.24 23.85 -85.3 0 0 692.5102 93.6558
  A 25.24 23.85 -85.3 0 0 714.2119 120.7651
  A 25.24 23.85 -85.3 0 0 740.0498 97.5642
  A 25.24 23.85 -85.3 0 0 718.3481 70.4549
  Z"
/>
<path fill="#28475c" d="
  M 201.52 129.67
  L 201.19 128.47
  A 0.46 0.45 64.1 0 0 200.49 128.22
  L 200.08 128.52
  L 199.74 127.97
  A 0.66 0.66 0.0 0 0 198.70 127.86
  Q 191.91 134.85 183.30 137.11
  C 178.94 138.26 175.63 137.70 170.91 137.72
  Q 165.79 137.74 161.77 136.34
  Q 147.93 131.51 146.17 116.13
  A 5.09 4.76 47.5 0 1 146.18 115.00
  C 146.65 111.64 146.74 108.58 147.94 105.76
  Q 150.73 99.16 156.27 95.77
  Q 159.15 94.01 166.43 91.61
  Q 170.94 90.13 177.21 89.70
  Q 187.29 89.01 196.50 89.67
  Q 200.09 89.93 200.34 87.98
  Q 200.44 87.45 200.88 87.14
  Q 200.97 87.32 201.15 87.43
  A 0.56 0.54 -75.7 0 0 201.96 86.93
  Q 201.84 79.41 196.60 74.51
  A 3.47 3.43 79.0 0 0 195.78 73.95
  C 188.83 70.57 183.53 70.51 175.50 70.98
  A 4.94 4.53 -52.2 0 0 174.45 71.16
  Q 165.50 73.78 157.16 80.18
  A 1.24 1.24 0.0 0 1 155.19 79.44
  L 153.74 72.14
  A 2.66 2.62 30.5 0 0 153.62 71.69
  L 152.26 68.04
  A 0.99 0.98 -32.9 0 1 152.49 67.00
  C 156.80 62.62 164.66 59.66 170.00 58.36
  Q 174.87 57.17 184.99 57.00
  Q 197.68 56.79 207.27 62.74
  C 212.13 65.76 215.58 71.88 217.09 78.14
  Q 217.91 81.52 217.96 87.36
  C 218.09 102.92 218.00 117.69 218.05 135.62
  A 0.70 0.69 0.0 0 1 217.35 136.31
  L 204.00 136.31
  A 1.18 1.18 0.0 0 1 202.82 135.05
  Q 202.92 133.68 202.91 132.03
  Q 202.89 128.88 201.52 129.67
  Z
  M 199.50 98.82
  Q 182.07 99.38 177.37 100.21
  C 171.92 101.17 166.26 103.84 164.30 109.41
  C 162.09 115.70 164.52 121.16 170.09 124.13
  C 171.84 125.06 174.53 125.30 176.27 125.82
  A 2.73 2.63 -37.9 0 0 177.32 125.93
  Q 183.69 125.38 186.67 124.45
  Q 194.60 121.96 199.79 115.28
  A 4.36 4.11 76.1 0 0 200.37 114.25
  Q 202.85 107.88 202.07 102.28
  Q 201.88 100.93 200.60 99.33
  A 1.36 1.35 -19.9 0 0 199.50 98.82
  Z"
/>
<path fill="#28475c" d="
  M 423.91 103.87
  Q 423.69 93.62 424.12 91.98
  Q 426.50 82.88 427.04 80.94
  A 4.52 4.23 69.6 0 1 427.42 80.03
  Q 431.71 72.51 433.25 70.74
  Q 442.54 60.11 455.47 57.75
  Q 464.73 56.06 476.22 58.25
  Q 478.41 58.66 480.88 59.90
  Q 484.56 61.75 485.29 62.19
  Q 496.40 68.89 501.41 79.91
  Q 504.65 87.03 504.72 95.99
  C 504.84 108.97 500.92 120.06 490.87 128.68
  Q 481.48 136.73 468.71 137.82
  Q 457.17 138.79 446.80 134.65
  C 437.22 130.83 432.30 124.12 427.44 114.96
  A 1.21 1.00 -73.3 0 1 427.33 114.70
  L 423.97 104.19
  A 1.45 1.21 39.7 0 1 423.91 103.87
  Z
  M 463.0313 70.3349
  A 27.25 24.22 -92.9 0 0 440.2210 98.7754
  A 27.25 24.22 -92.9 0 0 465.7887 124.7651
  A 27.25 24.22 -92.9 0 0 488.5990 96.3246
  A 27.25 24.22 -92.9 0 0 463.0313 70.3349
  Z"
/>
<path fill="#28475c" d="
  M 644.53 126.58
  A 0.57 0.57 0.0 0 0 643.62 125.96
  Q 638.00 131.02 635.54 132.75
  C 626.80 138.91 614.24 139.28 604.58 136.19
  Q 593.43 132.61 590.44 120.61
  Q 590.10 119.25 589.92 114.05
  C 589.46 99.95 602.85 92.50 614.54 90.41
  Q 623.75 88.77 640.10 89.86
  A 0.46 0.29 31.7 0 0 640.23 89.86
  L 644.37 89.15
  A 1.44 1.43 80.6 0 0 645.54 87.51
  C 644.09 78.40 641.90 72.96 631.86 71.18
  Q 621.75 69.39 612.84 72.63
  Q 610.39 73.52 606.15 76.03
  Q 601.37 78.87 599.93 80.02
  A 1.06 1.06 0.0 0 1 598.26 79.52
  L 594.88 68.90
  A 2.66 2.65 64.8 0 1 595.97 65.86
  Q 607.08 58.66 619.48 57.27
  Q 623.21 56.86 632.72 57.32
  Q 643.14 57.83 651.31 63.81
  C 658.37 68.97 660.62 78.94 660.73 87.51
  Q 660.89 99.68 660.89 122.04
  C 660.89 125.85 661.22 130.28 661.05 134.83
  A 1.98 1.98 0.0 0 1 658.79 136.72
  Q 652.99 135.91 646.66 136.35
  Q 644.55 136.50 644.69 133.72
  Q 644.82 131.01 644.23 128.00
  A 1.41 1.31 -43.1 0 1 644.28 127.26
  L 644.53 126.58
  Z
  M 643.94 99.92
  Q 642.13 98.88 639.75 98.94
  Q 634.13 99.09 623.37 99.85
  Q 617.76 100.25 612.91 102.85
  C 608.34 105.30 607.05 107.91 606.73 113.04
  Q 606.36 118.80 610.35 122.41
  C 613.66 125.41 618.40 125.76 622.73 125.52
  Q 631.33 125.05 638.01 119.70
  Q 646.60 112.81 644.94 101.40
  A 2.05 2.04 11.1 0 0 643.94 99.92
  Z"
/>
<path fill="#28475c" d="
  M 546.24 113.42
  Q 546.52 113.29 546.81 113.17
  Q 547.49 113.92 548.38 113.13
  A 0.45 0.44 81.0 0 0 548.50 112.96
  L 568.30 59.20
  A 1.75 1.74 10.1 0 1 569.94 58.06
  L 584.62 58.06
  A 1.09 1.09 0.0 0 1 585.63 59.56
  Q 574.42 87.68 551.79 146.05
  Q 550.94 148.25 549.78 150.62
  C 548.69 152.85 547.69 155.24 546.74 156.55
  Q 541.09 164.31 531.91 167.49
  Q 526.80 169.26 524.16 168.98
  Q 524.13 168.98 516.39 169.62
  A 1.68 1.67 87.6 0 1 514.58 167.95
  L 514.58 156.05
  A 0.90 0.90 0.0 0 1 515.45 155.15
  Q 520.28 154.99 525.48 153.23
  Q 530.44 151.55 533.76 146.77
  Q 536.42 142.94 536.77 142.18
  A 4.80 4.54 65.2 0 0 537.16 141.02
  L 537.89 137.33
  A 2.25 2.24 -51.0 0 0 537.76 136.07
  L 506.28 59.03
  A 0.84 0.84 0.0 0 1 507.06 57.87
  L 521.60 57.87
  A 2.70 2.69 80.4 0 1 524.14 59.68
  Q 526.20 65.57 528.98 72.57
  Q 536.98 92.73 544.61 112.97
  Q 544.84 113.58 545.40 113.84
  Q 545.99 114.12 546.24 113.42
  Z"
/>
<rect fill="#28475c" x="242.02" y="58.11" width="15.88" height="78.14" rx="0.75"/>
<path fill="#28475c" d="
  M 240.44 130.62
  Q 239.71 94.41 240.42 58.22
  Q 241.19 94.41 240.44 130.62
  Z"
/>
<path fill="#0d1519" d="
  M 785.82 90.44
  A 1.49 1.48 26.9 0 1 785.32 88.93
  Q 787.27 81.22 792.83 75.32
  Q 796.07 71.88 801.27 70.47
  Q 814.55 66.87 824.12 76.63
  C 826.55 79.11 830.26 86.73 828.61 90.15
  A 0.97 0.95 -80.2 0 1 827.86 90.69
  Q 824.26 91.14 820.50 91.13
  Q 793.98 91.05 789.25 91.32
  Q 787.05 91.45 785.82 90.44
  Z
  M 787.67 89.86
  L 827.66 89.37
  A 0.11 0.11 0.0 0 0 827.77 89.26
  L 827.77 89.14
  A 20.03 18.45 -0.7 0 0 807.52 70.94
  L 807.36 70.94
  A 20.03 18.45 -0.7 0 0 787.55 89.64
  L 787.55 89.75
  A 0.11 0.11 0.0 0 0 787.67 89.86
  Z"
/>
<path fill="#0d1519" d="
  M 463.0313 70.3349
  A 27.25 24.22 -92.9 0 1 488.5990 96.3246
  A 27.25 24.22 -92.9 0 1 465.7887 124.7651
  A 27.25 24.22 -92.9 0 1 440.2210 98.7754
  A 27.25 24.22 -92.9 0 1 463.0313 70.3349
  Z
  M 463.4450 71.7773
  A 25.79 22.73 -92.1 0 0 441.6753 98.3829
  A 25.79 22.73 -92.1 0 0 465.3350 123.3227
  A 25.79 22.73 -92.1 0 0 487.1047 96.7171
  A 25.79 22.73 -92.1 0 0 463.4450 71.7773
  Z"
/>
<path fill="#0d1519" d="
  M 718.3481 70.4549
  A 25.24 23.85 -85.3 0 1 740.0498 97.5642
  A 25.24 23.85 -85.3 0 1 714.2119 120.7651
  A 25.24 23.85 -85.3 0 1 692.5102 93.6558
  A 25.24 23.85 -85.3 0 1 718.3481 70.4549
  Z
  M 719.4984 72.0685
  A 23.73 22.60 -82.4 0 0 693.9585 92.6010
  A 23.73 22.60 -82.4 0 0 713.2216 119.1115
  A 23.73 22.60 -82.4 0 0 738.7615 98.5790
  A 23.73 22.60 -82.4 0 0 719.4984 72.0685
  Z"
/>
<path fill="#0d1519" d="
  M 200.34 87.98
  Q 200.09 89.93 196.50 89.67
  Q 187.29 89.01 177.21 89.70
  Q 170.94 90.13 166.43 91.61
  Q 159.15 94.01 156.27 95.77
  Q 150.73 99.16 147.94 105.76
  C 146.74 108.58 146.65 111.64 146.18 115.00
  A 5.09 4.76 47.5 0 0 146.17 116.13
  Q 147.93 131.51 161.77 136.34
  Q 165.79 137.74 170.91 137.72
  C 175.63 137.70 178.94 138.26 183.30 137.11
  Q 191.91 134.85 198.70 127.86
  A 0.66 0.66 0.0 0 1 199.74 127.97
  L 200.08 128.52
  C 191.09 137.89 179.57 140.94 167.00 139.23
  Q 161.04 138.42 155.42 134.86
  Q 148.33 130.36 146.34 123.10
  Q 140.58 102.10 158.95 92.90
  Q 165.77 89.49 176.07 88.35
  Q 183.58 87.53 200.34 87.98
  Z"
/>
<path fill="#2c4150" d="
  M 219.39 87.96
  L 219.50 106.64
  L 219.39 87.96
  Z"
/>
<path fill="#0d1519" d="
  M 200.60 99.33
  Q 201.88 100.93 202.07 102.28
  Q 202.85 107.88 200.37 114.25
  A 4.36 4.11 76.1 0 1 199.79 115.28
  Q 194.60 121.96 186.67 124.45
  Q 183.69 125.38 177.32 125.93
  A 2.73 2.63 -37.9 0 1 176.27 125.82
  C 174.53 125.30 171.84 125.06 170.09 124.13
  C 164.52 121.16 162.09 115.70 164.30 109.41
  C 166.26 103.84 171.92 101.17 177.37 100.21
  Q 182.07 99.38 199.50 98.82
  A 1.36 1.35 -19.9 0 1 200.60 99.33
  Z
  M 199.72 100.96
  Q 187.37 100.98 184.25 101.00
  C 180.66 101.03 176.27 101.81 172.49 103.25
  Q 164.95 106.13 164.95 113.42
  C 164.95 126.02 180.46 125.38 188.24 122.28
  Q 202.01 116.78 200.76 101.92
  A 1.05 1.04 87.6 0 0 199.72 100.96
  Z"
/>
<path fill="#0d1519" d="
  M 643.94 99.92
  A 2.05 2.04 11.1 0 1 644.94 101.40
  Q 646.60 112.81 638.01 119.70
  Q 631.33 125.05 622.73 125.52
  C 618.40 125.76 613.66 125.41 610.35 122.41
  Q 606.36 118.80 606.73 113.04
  C 607.05 107.91 608.34 105.30 612.91 102.85
  Q 617.76 100.25 623.37 99.85
  Q 634.13 99.09 639.75 98.94
  Q 642.13 98.88 643.94 99.92
  Z
  M 642.23 100.88
  Q 630.00 101.01 626.90 101.05
  C 623.35 101.12 619.00 101.93 615.27 103.39
  Q 607.83 106.31 607.89 113.53
  C 608.01 126.02 623.37 125.24 631.05 122.10
  Q 644.64 116.53 643.27 101.82
  A 1.04 1.03 87.1 0 0 642.23 100.88
  Z"
/>
</svg>
